Title - Die Hard 1988 

Cast - Bruce Willis,Alan Rickman,Bonnie Bedelia,Alexander Godunov,Reginald VelJohnson

IMBD - 8.3/10 [Rating]

Genre-Action | Crime | Drama | Thriller 

Plot - New York City Detective John McClane has just arrived in Los Angeles to spend Christmas with his wife. Unfortunatly, it is not going to be a Merry Christmas for everyone. A group of terrorists, led by Hans Gruber is holding everyone in the Nakatomi Plaza building hostage. With no way of anyone getting in or out, it's up to McClane to stop them all. All 12! 

INFO-

General-

Format                           : AVI
Format/Info                      : Audio Video Interleave
File size                        : 516 MiB
Duration                         : 2h 1mn
Overall bit rate                 : 595 Kbps
Writing library                  : MPlayer

Video-

ID                               : 0
Format                           : MPEG-4 Visual
Format profile                   : Simple@L1
Format settings, BVOP            : No
Format settings, QPel            : No
Format settings, GMC             : No warppoints
Format settings, Matrix          : Default (H.263)
Codec ID                         : DX50
Codec ID/Hint                    : DivX 5
Duration                         : 2h 1mn
Bit rate                         : 430 Kbps
Width                            : 656 pixels
Height                           : 288 pixels
Display aspect ratio             : 2.25:1
Frame rate                       : 25.000 fps
Resolution                       : 8 bits
Colorimetry                      : 4:2:0
Scan type                        : Interlaced
Scan order                       : Top Field First
Stream size                      : 373 MiB (72%)
Writing library                  : Lavc52.0.0

Audio-

ID                               : 1
Format                           : MPEG Audio
Format version                   : Version 1
Format profile                   : Layer 3
Format_Settings_Mode             : Joint stereo
Format_Settings_ModeExtension    : MS Stereo
Codec ID                         : 55
Codec ID/Hint                    : MP3
Duration                         : 2h 1mn
Bit rate mode                    : Constant
Bit rate                         : 160 Kbps
Channel(s)                       : 2 channels
Sampling rate                    : 44.1 KHz
Stream size                      : 139 MiB (27%)
Alignment                        : Split accross interleaves
Interleave, duration             : 500 ms (12.50 video frames)
Interleave, preload duration     : 500 ms

Trackers-
http://tracker.prq.to/announce 
http://tracker.openbittorrent.com/announce 
http://tracker.publicbt.com/announce


Watch Sample and COMMENT PLEASE.

Seed Xtremely :)
